<svg width="38" height="38" viewBox="0 0 38 38" fill="none" xmlns="http://www.w3.org/2000/svg">
<circle cx="19.2239" cy="18.6172" r="18.5852" fill="white"/>
<path d="M19.2245 21.3277C20.9359 21.3277 22.322 19.9416 22.322 18.2302V13.9711C22.322 12.2597 20.9359 10.8735 19.2245 10.8735C17.5131 10.8735 16.127 12.2597 16.127 13.9711V18.2302C16.127 19.9416 17.5131 21.3277 19.2245 21.3277Z" stroke="#67707E" stroke-width="1.16158" stroke-linecap="round" stroke-linejoin="round"/>
<path d="M13.2998 16.7974V18.1138C13.2998 21.3817 15.9559 24.0379 19.2238 24.0379C22.4918 24.0379 25.1479 21.3817 25.1479 18.1138V16.7974" stroke="#67707E" stroke-width="1.16158" stroke-linecap="round" stroke-linejoin="round"/>
<path d="M18.1484 14.3042C18.8454 14.0487 19.6043 14.0487 20.3012 14.3042" stroke="#67707E" stroke-width="1.16158" stroke-linecap="round" stroke-linejoin="round"/>
<path d="M18.6045 15.9458C19.0149 15.8374 19.4408 15.8374 19.8513 15.9458" stroke="#67707E" stroke-width="1.16158" stroke-linecap="round" stroke-linejoin="round"/>
<path d="M19.2246 24.0381V26.3612" stroke="#67707E" stroke-width="1.16158" stroke-linecap="round" stroke-linejoin="round"/>
</svg>
