<svg width="39" height="38" viewBox="0 0 39 38" fill="none" xmlns="http://www.w3.org/2000/svg">
<circle cx="19.468" cy="18.6172" r="18.5852" fill="#F1414F"/>
<path d="M23.0539 15.1947C23.0539 15.1947 23.0771 14.459 23.0539 14.219C22.9222 12.6392 21.8923 12.0972 19.8711 12.0972H14.9848C12.5377 12.0972 11.7246 12.9103 11.7246 15.3573V21.8776C11.7246 22.8534 12.0189 23.8368 12.7855 24.4641L13.2734 24.8126" stroke="white" stroke-width="1.16158" stroke-linecap="round" stroke-linejoin="round"/>
<path d="M23.139 17.8042V21.8775C23.139 24.3245 22.3259 25.1376 19.8789 25.1376H15.7979" stroke="white" stroke-width="1.16158" stroke-linecap="round" stroke-linejoin="round"/>
<path d="M27.2129 14.5439V21.5676C27.2129 22.8608 26.3456 23.31 25.2924 22.5666L23.1396 21.0565" stroke="white" stroke-width="1.16158" stroke-linecap="round" stroke-linejoin="round"/>
<path d="M27.227 11.0205L11.7393 26.5082" stroke="white" stroke-width="1.16158" stroke-linecap="round" stroke-linejoin="round"/>
</svg>
