<svg width="641" height="558" viewBox="0 0 641 558" fill="none" xmlns="http://www.w3.org/2000/svg">
<path d="M256.418 123.601C294.033 73.1838 358.283 50.2226 419.121 65.4543L450.808 73.3876C514.543 89.3443 561.749 142.69 569.769 207.82L579.622 287.83C586.398 342.856 560.868 397.057 513.994 427.159C503.378 433.976 491.921 439.383 479.916 443.24L366.061 479.827C308.948 498.18 246.532 483.2 204.34 441.013L157.982 394.66C146.873 383.552 137.812 370.576 131.21 356.321L116.132 323.761C88.4798 264.049 122.315 193.659 186.449 177.476C210.166 171.491 231.123 157.504 245.754 137.894L256.418 123.601Z" fill="#949595" fill-opacity="0.3" stroke="#0D87FF" stroke-width="0.5"/>
<path d="M238.808 120.41C276.424 69.9934 340.673 47.0322 401.512 62.2639L433.199 70.1972C496.933 86.1539 544.14 139.5 552.16 204.629L562.012 284.639C568.788 339.666 543.258 393.866 496.384 423.968C485.768 430.786 474.312 436.192 462.307 440.05L348.452 476.637C291.339 494.99 228.922 480.009 186.73 437.822L140.372 391.469C129.263 380.362 120.203 367.386 113.601 353.13L98.5226 320.57C70.8704 260.858 104.706 190.468 168.839 174.285C192.557 168.3 213.513 154.314 228.144 134.704L238.808 120.41Z" fill="white" stroke="#0D87FF" stroke-width="0.5"/>
</svg>
