<svg width="23" height="23" viewBox="0 0 23 23" fill="none" xmlns="http://www.w3.org/2000/svg">
<path d="M15.8757 4.3394L9.48011 3.24059C6.70205 2.7633 4.76136 4.13491 4.28407 6.91297L3.18657 13.301C2.70797 16.0867 4.07958 18.0274 6.85764 18.5046L13.2456 19.6021C16.0237 20.0794 17.9644 18.7078 18.4417 15.9298L19.5405 9.53412C20.0254 6.75738 18.6538 4.81669 15.8757 4.3394ZM9.4324 6.67389C10.2185 6.80895 10.7571 7.56149 10.6207 8.35522C10.4843 9.14895 9.7331 9.6799 8.93937 9.54353C8.14564 9.40716 7.61732 8.64067 7.75237 7.85457C7.88743 7.06847 8.6463 6.53883 9.4324 6.67389ZM10.4383 16.8255C8.38532 16.4728 7.00107 14.5142 7.35379 12.4612C7.44558 11.9269 7.95665 11.559 8.4909 11.6508L13.986 12.5949C14.5202 12.6867 14.8805 13.1965 14.7874 13.7383C14.4499 15.794 12.4914 17.1782 10.4383 16.8255ZM14.2844 10.4461C13.4983 10.3111 12.9597 9.55853 13.0961 8.7648C13.2325 7.97107 13.9837 7.44012 14.7774 7.57649C15.5712 7.71286 16.1021 8.46409 15.9657 9.25782C15.8294 10.0516 15.0705 10.5812 14.2844 10.4461Z" fill="white"/>
</svg>
