<svg width="39" height="38" viewBox="0 0 39 38" fill="none" xmlns="http://www.w3.org/2000/svg">
<circle cx="19.4778" cy="18.6172" r="18.5852" fill="white"/>
<path d="M12.5078 18.8031C12.5078 18.134 12.5698 17.5083 12.6937 16.926C12.8176 16.3437 13.022 15.8357 13.307 15.402C13.592 14.956 13.9575 14.609 14.4035 14.3612C14.8619 14.101 15.4257 13.9709 16.0948 13.9709C16.5284 13.9709 16.9621 13.9957 17.3957 14.0453C17.8418 14.0948 18.3188 14.163 18.8268 14.2497L18.771 15.2347C18.7339 15.2347 18.6347 15.2285 18.4737 15.2162C18.325 15.1914 18.1453 15.1728 17.9347 15.1604C17.7241 15.1356 17.501 15.117 17.2656 15.1046C17.0426 15.0923 16.8382 15.0861 16.6523 15.0861C16.0576 15.0861 15.5744 15.1728 15.2027 15.3463C14.831 15.5073 14.5336 15.7489 14.3106 16.0711C14.0999 16.3808 13.9575 16.7711 13.8831 17.2419C13.8088 17.7128 13.7716 18.2456 13.7716 18.8403C13.7716 19.2987 13.784 19.751 13.8088 20.197C13.8459 20.643 13.9513 21.0395 14.1247 21.3865C14.3106 21.7334 14.5894 22.0122 14.9611 22.2228C15.3452 22.4334 15.8903 22.5387 16.5966 22.5387L18.8082 22.3715L18.8454 23.3937C18.2506 23.4804 17.7365 23.5423 17.3028 23.5795C16.8815 23.6291 16.5284 23.6539 16.2434 23.6539C15.5372 23.6539 14.9425 23.5671 14.4593 23.3937C13.9884 23.2078 13.6043 22.9228 13.307 22.5387C13.022 22.1423 12.8176 21.6405 12.6937 21.0333C12.5698 20.4138 12.5078 19.6704 12.5078 18.8031Z" fill="#67707E"/>
<path d="M20.7115 18.8031C20.7115 18.134 20.7734 17.5083 20.8973 16.926C21.0212 16.3437 21.2256 15.8357 21.5106 15.402C21.7956 14.956 22.1611 14.609 22.6071 14.3612C23.0656 14.101 23.6293 13.9709 24.2984 13.9709C24.7321 13.9709 25.1657 13.9957 25.5994 14.0453C26.0454 14.0948 26.5224 14.163 27.0304 14.2497L26.9747 15.2347C26.9375 15.2347 26.8384 15.2285 26.6773 15.2162C26.5286 15.1914 26.349 15.1728 26.1383 15.1604C25.9277 15.1356 25.7047 15.117 25.4693 15.1046C25.2462 15.0923 25.0418 15.0861 24.856 15.0861C24.2612 15.0861 23.778 15.1728 23.4063 15.3463C23.0346 15.5073 22.7372 15.7489 22.5142 16.0711C22.3036 16.3808 22.1611 16.7711 22.0868 17.2419C22.0124 17.7128 21.9752 18.2456 21.9752 18.8403C21.9752 19.2987 21.9876 19.751 22.0124 20.197C22.0496 20.643 22.1549 21.0395 22.3284 21.3865C22.5142 21.7334 22.793 22.0122 23.1647 22.2228C23.5488 22.4334 24.094 22.5387 24.8002 22.5387L27.0118 22.3715L27.049 23.3937C26.4543 23.4804 25.9401 23.5423 25.5064 23.5795C25.0852 23.6291 24.7321 23.6539 24.4471 23.6539C23.7408 23.6539 23.1461 23.5671 22.6629 23.3937C22.1921 23.2078 21.808 22.9228 21.5106 22.5387C21.2256 22.1423 21.0212 21.6405 20.8973 21.0333C20.7734 20.4138 20.7115 19.6704 20.7115 18.8031Z" fill="#67707E"/>
</svg>
