<svg width="211" height="433" viewBox="0 0 211 433" fill="none" xmlns="http://www.w3.org/2000/svg">
<path d="M-4.0633 432.844C-7.8233 429.842 -15.7032 422.71 -20.0504 410.669C-25.9717 394.308 -21.3301 380.034 -19.8403 375.949C-20.5817 376.624 -38.5871 392.096 -60.8328 384.765C-78.0178 379.102 -87.6348 363.166 -89.109 348.678C-89.5576 344.415 -90.3984 329.539 -79.7468 318.256C-77.9543 316.356 -66.6708 304.393 -53.1269 307.908C-45.6534 309.854 -41.2497 315.535 -39.5917 317.943C-43.6262 318.328 -47.307 319.67 -50.6444 321.968C-51.9473 322.85 -60.2143 328.777 -60.6757 339.535C-61.04 347.833 -56.5868 355.071 -50.7231 359.011C-44.8645 362.95 -39.0941 362.853 -37.4017 362.798C-33.4753 362.642 -29.8351 361.53 -26.486 359.477C-22.926 353.818 -15.4427 340.166 -15.6049 321.453C-15.8253 296.355 -29.6601 279.606 -33.5837 275.142C-31.8335 274.138 -21.0175 267.589 -18.3355 254.117C-16.3144 243.846 -20.2093 235.772 -21.4872 233.346C-23.9259 232.092 -32.039 228.279 -42.2888 230.404C-55.7331 233.222 -62.173 244.103 -63.1589 245.864C-67.6629 241.985 -84.5499 228.32 -109.649 228.353C-128.363 228.38 -141.939 236.001 -147.561 239.618C-149.586 242.987 -150.656 246.639 -150.772 250.566C-150.81 252.259 -150.78 258.165 -146.85 263.849C-142.921 269.537 -135.596 274.053 -127.275 273.604C-116.522 273.034 -110.679 264.708 -109.811 263.396C-107.546 260.036 -106.242 256.336 -105.898 252.303C-103.478 253.937 -97.7477 258.283 -95.7257 265.737C-92.0741 279.244 -103.923 290.648 -105.804 292.46C-116.979 303.225 -131.863 302.534 -136.131 302.129C-150.633 300.801 -166.665 291.324 -172.502 274.218C-180.056 252.048 -164.768 233.887 -164.099 233.139C-168.17 234.67 -182.396 239.455 -198.816 233.699C-210.9 229.474 -218.132 221.666 -221.151 217.937C-218.17 214.177 -211.017 206.297 -198.976 201.95C-182.615 196.028 -168.342 200.67 -164.256 202.16C-164.931 201.418 -180.403 183.413 -173.072 161.167C-167.409 143.982 -151.473 134.365 -136.985 132.891C-132.722 132.442 -117.846 131.602 -106.563 142.253C-104.663 144.046 -92.6997 155.329 -96.2147 168.873C-98.1613 176.347 -103.848 180.75 -106.251 182.408C-106.636 178.379 -107.977 174.693 -110.275 171.356C-111.157 170.053 -117.084 161.786 -127.842 161.324C-136.167 160.96 -143.379 165.413 -147.318 171.277C-151.257 177.136 -151.16 182.906 -151.105 184.598C-150.95 188.525 -149.837 192.165 -147.784 195.514C-142.125 199.074 -128.473 206.557 -109.76 206.395C-84.6617 206.175 -67.9136 192.34 -63.4489 188.416C-62.4453 190.172 -55.8958 200.983 -42.4238 203.665C-32.153 205.686 -24.0788 201.791 -21.653 200.513C-20.3996 198.074 -16.5864 189.961 -18.7111 179.711C-21.529 166.267 -32.4106 159.827 -34.1708 158.841C-30.2924 154.337 -16.6275 137.45 -16.6604 112.351C-16.6872 93.6375 -24.3079 80.0612 -27.9249 74.4388C-31.2945 72.4193 -34.9458 71.344 -38.8735 71.2284C-40.5664 71.1901 -46.4726 71.2199 -52.156 75.1496C-57.8445 79.0794 -62.3597 86.4044 -61.9114 94.7252C-61.3415 105.478 -53.0151 111.321 -51.7034 112.19C-48.3429 114.454 -44.6488 115.758 -40.6105 116.102C-42.2442 118.527 -46.5903 124.252 -54.0437 126.274C-67.5515 129.926 -78.9552 118.077 -80.7668 116.196C-91.5317 105.021 -90.8412 90.1368 -90.4357 85.8691C-89.1078 71.3674 -79.6522 55.3351 -62.5252 49.4985C-40.3547 41.9438 -22.194 57.2325 -21.4458 57.9007C-22.9768 53.8302 -27.7622 39.6042 -22.0064 23.1843C-17.7809 11.1003 -9.97359 3.86811 -6.24399 0.849249C-2.4841 3.83031 5.39586 10.9833 9.74315 23.024C15.6644 39.385 11.0228 53.6586 9.53301 57.7443C10.2744 57.0686 28.2799 41.5973 50.5255 48.9279C67.7105 54.5912 77.3276 70.5272 78.8018 85.0148C79.2504 89.2782 80.0911 104.154 69.4396 115.437C67.6471 117.337 56.3636 129.3 42.8196 125.785C35.3462 123.839 30.9424 118.158 29.2844 115.749C33.3137 115.365 36.9997 114.023 40.3371 111.725C41.64 110.843 49.907 104.916 50.3684 94.1584C50.7326 85.8336 46.2795 78.6215 40.4158 74.6823C34.5573 70.7431 28.7868 70.84 27.0944 70.8954C23.1681 71.0506 19.5278 72.1628 16.1787 74.2162C12.6187 79.8748 5.13545 93.5274 5.29762 112.24C5.51807 137.338 19.3528 154.087 23.2764 158.551C21.521 159.555 10.7102 166.104 8.02818 179.576C6.00708 189.847 9.90206 197.921 11.1799 200.347C13.6186 201.6 21.7317 205.414 31.9815 203.289C45.4258 200.471 51.8658 189.59 52.8517 187.829C57.3557 191.708 74.2426 205.373 99.3417 205.34C118.055 205.313 131.632 197.692 137.254 194.075C139.274 190.706 140.349 187.054 140.464 183.127C140.503 181.434 140.473 175.528 136.543 169.844C132.613 164.156 125.288 159.64 116.968 160.089C106.215 160.659 100.372 168.985 99.5033 170.297C97.239 173.657 95.9348 177.357 95.5905 181.39C93.1656 179.756 87.4405 175.41 85.4184 167.956C81.7669 154.449 93.6157 143.045 95.4972 141.233C106.672 130.468 121.556 131.159 125.824 131.564C140.325 132.892 156.358 142.348 162.194 159.475C169.749 181.645 154.46 199.806 153.792 200.554C157.863 199.023 172.089 194.238 188.509 199.994C200.593 204.219 207.825 212.027 210.844 215.756C207.863 219.516 200.71 227.396 188.669 231.743C172.308 237.665 158.034 233.023 153.949 231.533C154.624 232.275 170.096 250.28 162.765 272.526C157.102 289.69 141.166 299.328 126.678 300.802C122.415 301.25 107.539 302.091 96.2554 291.44C94.3557 289.647 82.3924 278.364 85.9074 264.82C87.8541 257.346 93.535 252.943 95.9434 251.285C96.3283 255.314 97.6698 259 99.9679 262.337C100.85 263.64 106.777 271.907 117.534 272.369C125.859 272.733 133.071 268.28 137.011 262.416C140.95 256.557 140.853 250.787 140.797 249.095C140.642 245.168 139.53 241.528 137.477 238.179C131.818 234.619 118.165 227.136 99.4525 227.298C74.3544 227.518 57.6063 241.353 53.1417 245.277C52.138 243.526 45.5885 232.71 32.1165 230.028C21.8457 228.007 13.7716 231.902 11.3457 233.18C10.0924 235.619 6.27909 243.732 8.40378 253.982C11.2217 267.426 22.0981 273.866 23.8635 274.852C19.9851 279.356 6.32021 296.243 6.35315 321.342C6.37991 340.055 14.0006 353.632 17.6176 359.254C20.9872 361.274 24.6385 362.349 28.5662 362.465C30.2591 362.503 36.1653 362.473 41.8487 358.543C47.5373 354.614 52.0523 347.263 51.6042 338.968C51.0342 328.215 42.7078 322.372 41.3961 321.503C38.0356 319.239 34.3363 317.935 30.3033 317.591C31.9369 315.166 36.2831 309.441 43.7365 307.419C57.2443 303.767 68.648 315.616 70.4596 317.497C81.2245 328.672 80.534 343.556 80.1284 347.824C78.8006 362.326 69.3449 378.358 52.2179 384.194C30.0474 391.749 11.8867 376.46 11.1385 375.792C12.6695 379.863 17.4549 394.089 11.6992 410.509C7.47365 422.593 -0.333802 429.804 -4.0633 432.844Z" fill="#FBB03B" fill-opacity="0.5"/>
</svg>
