<svg width="16" height="17" viewBox="0 0 16 17" fill="none" xmlns="http://www.w3.org/2000/svg">
<path d="M10.7612 2.58843L4.93392 4.52439C1.01682 5.83439 1.01682 7.97041 4.93392 9.27395L6.66337 9.84829L7.23771 11.5777C8.54126 15.4948 10.6837 15.4948 11.9873 11.5777L13.9297 5.75696C14.7944 3.14341 13.3747 1.71725 10.7612 2.58843ZM10.9677 6.06026L8.51545 8.52538C8.41865 8.62218 8.29604 8.66735 8.17343 8.66735C8.05081 8.66735 7.9282 8.62218 7.83141 8.52538C7.64426 8.33824 7.64426 8.02849 7.83141 7.84134L10.2836 5.37622C10.4708 5.18907 10.7805 5.18907 10.9677 5.37622C11.1548 5.56336 11.1548 5.87311 10.9677 6.06026Z" fill="white"/>
</svg>
